# xmcd
#
# Track frame offsets: 
#        150
#        23265
#        36692
#        62392
#        83760
#        97057
#        113407
#        126760
#        142450
#        158670
#        170250
#        185417
#        203727
#        215795
#        234000
#        250447
#        266510
#        283052
#        297935
#        312767
#        321320
#
# Disc length: 4485 seconds
#
# Revision: 0
# Processed by: cddbd v1.5.2PL0 Copyright (c) Steve Scherf et al.
# Submitted via: ExactAudioCopy v0.99pb1
#
DISCID=30118315
DTITLE=Vladimir Misik - Sin slavy 2
DYEAR=2000
DGENRE=Blues
TTITLE0=Mala pani
TTITLE1=Tma steka do kaluzi
TTITLE2=Doteky
TTITLE3=Kralovsky vecer
TTITLE4=Spejchar blues
TTITLE5=20 deka duse
TTITLE6=Zivotni rezim
TTITLE7=Co ti dam
TTITLE8=Smajdak a plouzaky
TTITLE9=Koukni na tu fotku
TTITLE10=Osameli lide
TTITLE11=Nekdy se jdu opit
TTITLE12=Gambrinus
TTITLE13=Chvile po setmeni
TTITLE14=V sedmem nebi
TTITLE15=Pod Stvanickym mostem
TTITLE16=Co jsem si vzal
TTITLE17=To byl zas den
TTITLE18=Poklad na ostrove
TTITLE19=Noc
TTITLE20=Byl jsem dobrej
EXTD=
EXTT0=
EXTT1=
EXTT2=
EXTT3=
EXTT4=
EXTT5=
EXTT6=
EXTT7=
EXTT8=
EXTT9=
EXTT10=
EXTT11=
EXTT12=
EXTT13=
EXTT14=
EXTT15=
EXTT16=
EXTT17=
EXTT18=
EXTT19=
EXTT20=
PLAYORDER=
